<mxfile host="Electron" agent="Mozilla/5.0 (Macintosh; Intel Mac OS X 10_15_7) AppleWebKit/537.36 (KHTML, like Gecko) draw.io/24.7.8 Chrome/128.0.6613.36 Electron/32.0.1 Safari/537.36" version="24.7.8">
  <diagram name="Pagina-1" id="SI-skZMBjrkvxbbWPy8i">
    <mxGraphModel dx="869" dy="550" grid="1" gridSize="10" guides="1" tooltips="1" connect="1" arrows="1" fold="1" page="1" pageScale="1" pageWidth="1169" pageHeight="827" math="0" shadow="0">
      <root>
        <mxCell id="0" />
        <mxCell id="1" parent="0" />
        <mxCell id="z8jGhasrW_QzF8ZK2eQ5-1" value="&lt;span style=&quot;font-weight: normal;&quot;&gt;«Interface»&lt;/span&gt;&lt;br&gt;Subject&lt;div&gt;&lt;/div&gt;" style="swimlane;fontStyle=1;align=center;verticalAlign=top;childLayout=stackLayout;horizontal=1;startSize=40;horizontalStack=0;resizeParent=1;resizeParentMax=0;resizeLast=0;collapsible=1;marginBottom=0;whiteSpace=wrap;html=1;fontFamily=Fira Mono;" vertex="1" parent="1">
          <mxGeometry x="345" y="250" width="260" height="126" as="geometry">
            <mxRectangle x="350" y="250" width="100" height="40" as="alternateBounds" />
          </mxGeometry>
        </mxCell>
        <mxCell id="z8jGhasrW_QzF8ZK2eQ5-3" value="" style="line;strokeWidth=1;align=left;verticalAlign=middle;spacingTop=-1;spacingLeft=3;spacingRight=3;rotatable=0;labelPosition=right;points=[];portConstraint=eastwest;fontFamily=Fira Mono;" vertex="1" parent="z8jGhasrW_QzF8ZK2eQ5-1">
          <mxGeometry y="40" width="260" height="8" as="geometry" />
        </mxCell>
        <mxCell id="z8jGhasrW_QzF8ZK2eQ5-4" value="+ subscribe(obs: Observer‹T›): int" style="text;align=left;verticalAlign=top;spacingLeft=4;spacingRight=4;overflow=hidden;rotatable=0;points=[[0,0.5],[1,0.5]];portConstraint=eastwest;whiteSpace=wrap;html=1;fontFamily=Fira Mono;" vertex="1" parent="z8jGhasrW_QzF8ZK2eQ5-1">
          <mxGeometry y="48" width="260" height="26" as="geometry" />
        </mxCell>
        <mxCell id="z8jGhasrW_QzF8ZK2eQ5-8" value="+ emit(value: T): void" style="text;align=left;verticalAlign=top;spacingLeft=4;spacingRight=4;overflow=hidden;rotatable=0;points=[[0,0.5],[1,0.5]];portConstraint=eastwest;whiteSpace=wrap;html=1;fontFamily=Fira Mono;" vertex="1" parent="z8jGhasrW_QzF8ZK2eQ5-1">
          <mxGeometry y="74" width="260" height="26" as="geometry" />
        </mxCell>
        <mxCell id="z8jGhasrW_QzF8ZK2eQ5-7" value="+ unsubscribe(index: int): void" style="text;align=left;verticalAlign=top;spacingLeft=4;spacingRight=4;overflow=hidden;rotatable=0;points=[[0,0.5],[1,0.5]];portConstraint=eastwest;whiteSpace=wrap;html=1;fontFamily=Fira Mono;" vertex="1" parent="z8jGhasrW_QzF8ZK2eQ5-1">
          <mxGeometry y="100" width="260" height="26" as="geometry" />
        </mxCell>
        <mxCell id="z8jGhasrW_QzF8ZK2eQ5-13" style="edgeStyle=orthogonalEdgeStyle;rounded=0;orthogonalLoop=1;jettySize=auto;html=1;endArrow=block;endFill=0;endSize=12;fontFamily=Fira Mono;" edge="1" parent="1" source="z8jGhasrW_QzF8ZK2eQ5-12" target="z8jGhasrW_QzF8ZK2eQ5-1">
          <mxGeometry relative="1" as="geometry" />
        </mxCell>
        <mxCell id="z8jGhasrW_QzF8ZK2eQ5-21" style="edgeStyle=orthogonalEdgeStyle;rounded=0;orthogonalLoop=1;jettySize=auto;html=1;endArrow=diamondThin;endFill=0;startSize=6;endSize=20;fontFamily=Fira Mono;" edge="1" parent="1" source="z8jGhasrW_QzF8ZK2eQ5-12" target="z8jGhasrW_QzF8ZK2eQ5-15">
          <mxGeometry relative="1" as="geometry">
            <Array as="points">
              <mxPoint x="640" y="470" />
              <mxPoint x="640" y="323" />
            </Array>
          </mxGeometry>
        </mxCell>
        <mxCell id="z8jGhasrW_QzF8ZK2eQ5-12" value="&lt;p style=&quot;margin:0px;margin-top:4px;text-align:center;&quot;&gt;&lt;b&gt;ConcreteSubject&lt;/b&gt;&lt;/p&gt;&lt;hr style=&quot;border-style:solid;&quot; size=&quot;1&quot;&gt;&lt;p style=&quot;margin:0px;margin-left:4px;&quot;&gt;+ observers: Observer‹T›[]&lt;/p&gt;&lt;hr style=&quot;border-style:solid;&quot; size=&quot;1&quot;&gt;&lt;p style=&quot;margin:0px;margin-left:4px;&quot;&gt;&lt;br&gt;&lt;/p&gt;" style="verticalAlign=top;align=left;overflow=fill;html=1;whiteSpace=wrap;fontFamily=Fira Mono;" vertex="1" parent="1">
          <mxGeometry x="375" y="440" width="200" height="60" as="geometry" />
        </mxCell>
        <mxCell id="z8jGhasrW_QzF8ZK2eQ5-15" value="&lt;span style=&quot;font-weight: normal;&quot;&gt;«Interface»&lt;/span&gt;&lt;br&gt;Observer&lt;div&gt;&lt;/div&gt;" style="swimlane;fontStyle=1;align=center;verticalAlign=top;childLayout=stackLayout;horizontal=1;startSize=40;horizontalStack=0;resizeParent=1;resizeParentMax=0;resizeLast=0;collapsible=1;marginBottom=0;whiteSpace=wrap;html=1;fontFamily=Fira Mono;" vertex="1" parent="1">
          <mxGeometry x="720" y="286" width="190" height="74" as="geometry">
            <mxRectangle x="350" y="250" width="100" height="40" as="alternateBounds" />
          </mxGeometry>
        </mxCell>
        <mxCell id="z8jGhasrW_QzF8ZK2eQ5-16" value="" style="line;strokeWidth=1;align=left;verticalAlign=middle;spacingTop=-1;spacingLeft=3;spacingRight=3;rotatable=0;labelPosition=right;points=[];portConstraint=eastwest;fontFamily=Fira Mono;" vertex="1" parent="z8jGhasrW_QzF8ZK2eQ5-15">
          <mxGeometry y="40" width="190" height="8" as="geometry" />
        </mxCell>
        <mxCell id="z8jGhasrW_QzF8ZK2eQ5-17" value="- next(value: T): int" style="text;align=left;verticalAlign=top;spacingLeft=4;spacingRight=4;overflow=hidden;rotatable=0;points=[[0,0.5],[1,0.5]];portConstraint=eastwest;whiteSpace=wrap;html=1;fontFamily=Fira Mono;" vertex="1" parent="z8jGhasrW_QzF8ZK2eQ5-15">
          <mxGeometry y="48" width="190" height="26" as="geometry" />
        </mxCell>
        <mxCell id="z8jGhasrW_QzF8ZK2eQ5-24" style="edgeStyle=orthogonalEdgeStyle;rounded=0;orthogonalLoop=1;jettySize=auto;html=1;endArrow=block;endFill=0;endSize=12;fontFamily=Fira Mono;" edge="1" parent="1" source="z8jGhasrW_QzF8ZK2eQ5-22" target="z8jGhasrW_QzF8ZK2eQ5-15">
          <mxGeometry relative="1" as="geometry" />
        </mxCell>
        <mxCell id="z8jGhasrW_QzF8ZK2eQ5-22" value="&lt;p style=&quot;margin:0px;margin-top:4px;text-align:center;&quot;&gt;&lt;b&gt;ConcreteObserver&lt;/b&gt;&lt;/p&gt;&lt;hr style=&quot;border-style:solid;&quot; size=&quot;1&quot;&gt;&lt;p style=&quot;margin:0px;margin-left:4px;&quot;&gt;+ status: T&lt;/p&gt;&lt;hr style=&quot;border-style:solid;&quot; size=&quot;1&quot;&gt;&lt;p style=&quot;margin:0px;margin-left:4px;&quot;&gt;&lt;br&gt;&lt;/p&gt;" style="verticalAlign=top;align=left;overflow=fill;html=1;whiteSpace=wrap;fontFamily=Fira Mono;" vertex="1" parent="1">
          <mxGeometry x="740" y="440" width="150" height="60" as="geometry" />
        </mxCell>
        <mxCell id="z8jGhasrW_QzF8ZK2eQ5-11" value="T" style="rounded=0;whiteSpace=wrap;html=1;dashed=1;fontFamily=Fira Mono;" vertex="1" parent="1">
          <mxGeometry x="560" y="230" width="30" height="30" as="geometry" />
        </mxCell>
        <mxCell id="z8jGhasrW_QzF8ZK2eQ5-14" value="T" style="rounded=0;whiteSpace=wrap;html=1;dashed=1;fontFamily=Fira Mono;" vertex="1" parent="1">
          <mxGeometry x="560" y="420" width="30" height="30" as="geometry" />
        </mxCell>
        <mxCell id="z8jGhasrW_QzF8ZK2eQ5-20" value="T" style="rounded=0;whiteSpace=wrap;html=1;dashed=1;fontFamily=Fira Mono;" vertex="1" parent="1">
          <mxGeometry x="900" y="266" width="30" height="30" as="geometry" />
        </mxCell>
        <mxCell id="z8jGhasrW_QzF8ZK2eQ5-23" value="T" style="rounded=0;whiteSpace=wrap;html=1;dashed=1;fontFamily=Fira Mono;" vertex="1" parent="1">
          <mxGeometry x="880" y="420" width="30" height="30" as="geometry" />
        </mxCell>
      </root>
    </mxGraphModel>
  </diagram>
</mxfile>
